<svg id="Outline" xmlns="http://www.w3.org/2000/svg" fill="#fff" viewBox="0 0 340 340"><title>rule board </title><path d="M185.939,298.943a4,4,0,0,0,4-4V226.526h74.134a4,4,0,0,0,4-4V10a4,4,0,0,0-4-4H75.927a4,4,0,0,0-4,4V222.526a4,4,0,0,0,4,4h74.134v80.746H117.853a15.8,15.8,0,0,0-15.785,15.785V330a4,4,0,0,0,4,4H233.932a4,4,0,0,0,4-4v-6.943a15.8,15.8,0,0,0-15.785-15.785H158.061V222.526a4,4,0,0,0-4-4H79.927V14H260.073V218.526H173.994a4,4,0,1,0,0,8h7.945v68.417A4,4,0,0,0,185.939,298.943Zm43.993,24.114V326H110.068v-2.943a7.8,7.8,0,0,1,7.785-7.785H222.147A7.8,7.8,0,0,1,229.932,323.057Z"/><path d="M145.22,36.438a4,4,0,0,0-5.656-.122L120.689,54.389l-.091-.105a4,4,0,1,0-6.023,5.266l2.846,3.256a4,4,0,0,0,2.834,1.363c.059,0,.119,0,.178,0a4,4,0,0,0,2.766-1.111l7.851-7.518-1.6,15.666H109.159l2.259-22.073h6.168a4,4,0,1,0,0-8h-9.779a4,4,0,0,0-3.979,3.592L100.75,74.8a4,4,0,0,0,3.979,4.407h28.33a4,4,0,0,0,3.979-3.593l2.927-28.609,5.133-4.914A4,4,0,0,0,145.22,36.438Z"/><path d="M241.473,75.21a4,4,0,0,0-4-4H217.912a4,4,0,0,0,0,8h19.561A4,4,0,0,0,241.473,75.21Z"/><path d="M202.421,71.21h-.811a4,4,0,0,0,0,8h.811a4,4,0,0,0,0-8Z"/><path d="M156.812,79.21h28.5a4,4,0,0,0,0-8h-28.5a4,4,0,0,0,0,8Z"/><path d="M203.473,52.478H156.812a4,4,0,0,0,0,8h46.661a4,4,0,0,0,0-8Z"/><path d="M145.22,94.262a4,4,0,0,0-5.656-.122l-18.875,18.073-.091-.1a4,4,0,1,0-6.023,5.266l2.846,3.256a4,4,0,0,0,2.834,1.363c.059,0,.119,0,.178,0a4,4,0,0,0,2.766-1.111l7.851-7.518-1.6,15.665H109.159l2.259-22.072h6.168a4,4,0,0,0,0-8h-9.779a4,4,0,0,0-3.979,3.593l-3.078,30.072a4,4,0,0,0,3.979,4.407h28.33a4,4,0,0,0,3.979-3.593l2.927-28.608,5.133-4.915A4,4,0,0,0,145.22,94.262Z"/><path d="M156.812,137.033h80.661a4,4,0,0,0,0-8H156.812a4,4,0,0,0,0,8Z"/><path d="M156.812,118.3h41.674a4,4,0,0,0,0-8H156.812a4,4,0,0,0,0,8Z"/><path d="M218.066,110.3a4,4,0,0,0,0,8h9.675a4,4,0,0,0,0-8Z"/><path d="M117.586,162.191a4,4,0,0,0,0-8h-9.779a4,4,0,0,0-3.979,3.593l-3.078,30.073a4,4,0,0,0,3.979,4.408h28.33a4,4,0,0,0,3.979-3.593l2.927-28.609,5.133-4.915a4,4,0,1,0-5.534-5.777l-18.875,18.072-.091-.1a4,4,0,0,0-6.023,5.265l2.846,3.256a4,4,0,0,0,2.834,1.364c.059,0,.119,0,.178,0a4,4,0,0,0,2.766-1.112l7.851-7.517-1.6,15.666H109.159l2.259-22.074Z"/><path d="M156.812,192.265h80.661a4,4,0,0,0,0-8H156.812a4,4,0,0,0,0,8Z"/><path d="M156.812,173.532h16.661a4,4,0,0,0,0-8H156.812a4,4,0,0,0,0,8Z"/><path d="M190.155,165.532a4,4,0,0,0,0,8h16.662a4,4,0,0,0,0-8Z"/></svg>